<svg width="513" height="375" viewBox="0 0 513 375" fill="none" xmlns="http://www.w3.org/2000/svg">
<path d="M330.091 369.046C290.209 378.761 279.187 326.421 240.49 327.11C189.86 328.012 134.446 382.124 87.795 373.362C40.4462 364.47 16.1412 323.417 6.06919 283.083C-4.82435 239.459 -1.44319 187.561 29.8409 141.281C60.7572 95.5457 116.404 60.975 171.579 38.2388C220.468 18.0924 267.851 28.3339 317.579 22.7099C365.655 17.2728 420.644 -9.97627 459.038 5.72859C497.499 21.4604 511.788 62.6795 512.277 102.349C512.71 137.435 481.634 172.789 461.536 208.372C446.179 235.561 429.243 260.764 408.433 286.203C384.314 315.684 368.136 359.779 330.091 369.046Z" fill="#484C9A"/>
</svg>
